<?xml version="1.0" encoding="utf-8"?>
<!-- Generator: Adobe Illustrator 22.0.0, SVG Export Plug-In . SVG Version: 6.00 Build 0)  -->
<svg version="1.1" id="Layer_1" xmlns="http://www.w3.org/2000/svg" xmlns:xlink="http://www.w3.org/1999/xlink" x="0px" y="0px"
	 viewBox="0 0 210 210" style="enable-background:new 0 0 210 210;" xml:space="preserve">
<style type="text/css">
	.st0{fill:none;stroke:#000000;stroke-width:0.5;stroke-miterlimit:10;}
	.st1{fill:#272727;}
</style>
<path d="M159.1,146.9L159.1,146.9c-5.8,3.4-13.3,1.4-16.7-4.5L89.3,50.5c-3.4-5.8-1.4-13.3,4.5-16.7l0,0c5.8-3.4,13.3-1.4,16.7,4.5
	l53.1,91.9C166.9,136,164.9,143.5,159.1,146.9z"/>
<path class="st0" d="M40.3,146.9L40.3,146.9c5.8,3.4,13.3,1.4,16.7-4.5l53.1-91.9c3.4-5.8,1.4-13.3-4.5-16.7l0,0
	c-5.8-3.4-13.3-1.4-16.7,4.5l-53.1,91.9C32.5,136,34.5,143.5,40.3,146.9z"/>
<circle class="st1" cx="46.5" cy="136.1" r="10.3"/>
<circle class="st1" cx="99.8" cy="44.3" r="10.3"/>
<circle class="st1" cx="152.8" cy="136.1" r="10.3"/>
<circle class="st1" cx="64.1" cy="105.7" r="10.3"/>
<circle class="st1" cx="91.6" cy="105.7" r="10.3"/>
</svg>
