<?xml version="1.0" encoding="utf-8"?>
<!-- Generator: Adobe Illustrator 22.0.0, SVG Export Plug-In . SVG Version: 6.00 Build 0)  -->
<svg version="1.1" id="Layer_1" xmlns="http://www.w3.org/2000/svg" xmlns:xlink="http://www.w3.org/1999/xlink" x="0px" y="0px"
	 viewBox="0 0 210 210" style="enable-background:new 0 0 210 210;" xml:space="preserve">
<style type="text/css">
	.st0{stroke:#000000;stroke-width:0.5;stroke-miterlimit:10;}
	.st1{fill:none;stroke:#000000;stroke-width:0.25;stroke-miterlimit:10;}
	.st2{fill:#272727;}
	.st3{fill:#FFFFFF;}
</style>
<g>
	<path class="st0" d="M114.5,104.5L114.5,104.5c-1.5,0.8-3.3,0.3-4.2-1.1l-13.3-23c-0.8-1.5-0.3-3.3,1.1-4.2l0,0
		c1.5-0.8,3.3-0.3,4.2,1.1l13.3,23C116.5,101.8,116,103.6,114.5,104.5z"/>
	<path class="st1" d="M84.8,104.5L84.8,104.5c1.5,0.8,3.3,0.3,4.2-1.1l13.3-23c0.8-1.5,0.3-3.3-1.1-4.2h0c-1.5-0.8-3.3-0.3-4.2,1.1
		l-13.3,23C82.9,101.8,83.4,103.6,84.8,104.5z"/>
	<circle class="st2" cx="86.4" cy="101.8" r="2.6"/>
	<circle class="st3" cx="99.7" cy="78.8" r="2.6"/>
	<circle class="st3" cx="113" cy="101.8" r="2.6"/>
	<circle class="st2" cx="90.8" cy="94.2" r="2.6"/>
	<circle class="st2" cx="97.9" cy="94.2" r="2.6"/>
</g>
</svg>
